<svg xmlns="http://www.w3.org/2000/svg" xmlns:xlink="http://www.w3.org/1999/xlink" version="1.1" x="0px" y="0px" viewBox="0 0 29.213 63.03375" enable-background="new 0 0 29.213 50.427" xml:space="preserve"><g><path d="M1.173,49.254c-1.563-1.562-1.563-4.096,0-5.657l0,0l18.384-18.386L1.173,6.829v0.002c-1.562-1.562-1.563-4.096,0-5.657   l0,0C2.732-0.39,5.266-0.39,6.831,1.171l0,0l21.21,21.214c0.746,0.743,1.172,1.775,1.172,2.828l0,0   c0,1.054-0.426,2.083-1.172,2.829l0,0L6.831,49.256c-0.782,0.781-1.806,1.171-2.829,1.171l0,0   C2.978,50.427,1.954,50.037,1.173,49.254L1.173,49.254z" fill="#ffffff"/></g></svg>