<svg xmlns="http://www.w3.org/2000/svg" xmlns:xlink="http://www.w3.org/1999/xlink" version="1.1" x="0px" y="0px" viewBox="0 0 29.212 63.03375" enable-background="new 0 0 29.212 50.427" xml:space="preserve"><g><path d="M22.383,49.255L1.171,28.042C0.426,27.296,0,26.266,0,25.213l0,0c0-1.054,0.426-2.086,1.171-2.829l0,0L22.383,1.172   c1.562-1.563,4.096-1.563,5.657,0l0,0c1.562,1.562,1.562,4.093,0,5.655l0,0L9.655,25.213l18.386,18.385   c1.562,1.562,1.562,4.096,0,5.657l0,0c-0.781,0.781-1.805,1.172-2.828,1.172l0,0C24.188,50.427,23.165,50.037,22.383,49.255   L22.383,49.255z" fill="#ffffff"/></g></svg>